<svg width="26" height="26" viewBox="0 0 26 26" fill="none" xmlns="http://www.w3.org/2000/svg">
<rect width="26" height="26" rx="13" fill="#4F46E5"/>
<path d="M10.1379 19.2804C7.6937 19.2804 5.89301 18.7613 4.73581 17.7231C3.5786 16.6848 3 15.2032 3 13.2781C3 11.3422 3.5786 9.8119 4.73581 8.68714C5.89301 7.56238 7.6937 7 10.1379 7C13.5554 7 15.8428 8.17343 17 10.5203C16.0267 10.8555 14.8857 11.3584 13.5771 12.029C13.2634 11.4233 12.7659 10.9745 12.0846 10.6825C11.4141 10.3905 10.7273 10.2445 10.0243 10.2445C8.98609 10.2445 8.21282 10.5203 7.70452 11.0718C7.19621 11.6126 6.94206 12.2831 6.94206 13.0834C6.94206 13.9486 7.21244 14.657 7.75319 15.2086C8.30475 15.7493 9.14291 16.0197 10.2677 16.0197C11.1653 16.0197 11.8791 15.8737 12.409 15.5817C12.939 15.2789 13.3283 14.803 13.5771 14.1541C14.4639 14.63 15.5995 15.1653 16.9838 15.7601C16.443 17.0688 15.54 17.9826 14.2746 18.5017C13.0093 19.0209 11.6304 19.2804 10.1379 19.2804Z" fill="white"/>
<path d="M21.3413 7.40594L22 8.59406L21.1026 9L22 9.40594L21.3413 10.5941L20.5489 9.9901L20.6635 11H19.3365L19.4511 9.9901L18.6587 10.5941L18 9.40594L18.8974 9L18 8.59406L18.6587 7.40594L19.4511 8.0099L19.3365 7H20.6635L20.5489 8.0099L21.3413 7.40594Z" fill="white"/>
</svg>
